# xmcd CD database file
#
# Track frame offsets:
#	182
#	12775
#	24680
#	36757
#	46540
#	57490
#	67007
#	79195
#	112555
#	130112
#	145060
#	155362
#	171902
#	184635
#	197150
#	212512
#	224380
#	235465
#	251237
#	262470
#	278482
#	291482
#	305460
#	316385
#
# Disc length: 4382 seconds
#
# Revision: 2
# Processed by: cddbd v1.5.2PL0 Copyright (c) Steve Scherf et al.
# Submitted via: CDex 1.51
#
DISCID=62111c18
DTITLE=Them featuring Van Morrison - The Collection
DYEAR=1986
DGENRE=
TTITLE0=Baby Please Don't Go
TTITLE1=Bright Lights Big City
TTITLE2=I Put a Spell on You
TTITLE3=Hello Josephine
TTITLE4=Turn on Your Love Light
TTITLE5=Don't Start Crying Now
TTITLE6=Gloria
TTITLE7=The Story of Them
TTITLE8=It's All Over Now, Baby Blue
TTITLE9=I Got a Woman
TTITLE10=My Little Baby
TTITLE11=How Long Baby
TTITLE12=Here Comes The Night
TTITLE13=Stormy Monday
TTITLE14=I Like it Like That
TTITLE15=Go on Home Baby
TTITLE16=Out of Sight
TTITLE17=Baby What You Want Me To Do
TTITLE18=Route 66 (Get Your Kicks On)
TTITLE19=Friday's Child
TTITLE20=Little Girl
TTITLE21=Hey Girl
TTITLE22=Call My Name
TTITLE23=Mystic Eyes
EXTD=YEAR: 1986
EXTT0=
EXTT1=
EXTT2=
EXTT3=
EXTT4=
EXTT5=
EXTT6=
EXTT7=
EXTT8=
EXTT9=
EXTT10=
EXTT11=
EXTT12=
EXTT13=
EXTT14=
EXTT15=
EXTT16=
EXTT17=
EXTT18=
EXTT19=
EXTT20=
EXTT21=
EXTT22=
EXTT23=
PLAYORDER=
